Coordinates
version=1
nRows=43
nColumns=12
inDegrees=yes

Units are S.I. units (second, meters, Newtons, ...)
Angles are in degrees

endheader
time	SC_y	SC_z	SC_x	AC_y	AC_z	AC_x	GH_y	GH_z	GH_yy	EL_x	PS_y
       0.0              -24.76         -1.465          39.34          65.71         -12.38         -0.226          21.03          52.54         -11.71          38.06          35.11
    0.0245              -24.76         -1.465          39.34          65.71         -12.38        -0.2274          21.03          52.53         -11.72          38.06          35.12
     0.049              -24.76         -1.465          39.34           65.7         -12.38        -0.2289          21.04          52.53         -11.73          38.05          35.13
    0.0735              -24.76         -1.465          39.34           65.7         -12.38        -0.2305          21.04          52.52         -11.74          38.05          35.14
   0.09799              -24.76         -1.466          39.34           65.7         -12.38        -0.2323          21.05          52.51         -11.75          38.04          35.14
    0.1225              -24.75         -1.466          39.34           65.7         -12.38        -0.2341          21.05          52.51         -11.76          38.04          35.15
     0.147              -24.75         -1.466          39.35           65.7         -12.38        -0.2361          21.06           52.5         -11.77          38.03          35.16
    0.1715              -24.75         -1.466          39.35           65.7         -12.38        -0.2381          21.06           52.5         -11.78          38.02          35.17
     0.196              -24.75         -1.466          39.35           65.7         -12.39        -0.2404          21.07          52.49          -11.8          38.02          35.18
    0.2205              -24.75         -1.466          39.35          65.69         -12.39        -0.2428          21.07          52.48         -11.81          38.01          35.19
     0.245              -24.74         -1.466          39.35          65.69         -12.39        -0.2454          21.08          52.47         -11.83           38.0          35.21
    0.2695              -24.74         -1.466          39.36          65.69         -12.39        -0.2482          21.09          52.46         -11.84          37.99          35.22
     0.294              -24.74         -1.466          39.36          65.69         -12.39        -0.2512          21.09          52.45         -11.86          37.98          35.23
    0.3185              -24.73         -1.466          39.36          65.69         -12.39        -0.2544           21.1          52.44         -11.88          37.97          35.25
     0.343              -24.73         -1.466          39.36          65.68          -12.4        -0.2579          21.11          52.43          -11.9          37.96          35.27
    0.3675              -24.73         -1.466          39.37          65.68          -12.4        -0.2617          21.12          52.42         -11.92          37.95          35.28
     0.392              -24.72         -1.466          39.37          65.68          -12.4        -0.2659          21.13           52.4         -11.95          37.93           35.3
    0.4165              -24.72         -1.466          39.37          65.67          -12.4        -0.2704          21.14          52.39         -11.97          37.92          35.32
     0.441              -24.71         -1.466          39.38          65.67         -12.41        -0.2753          21.15          52.37          -12.0           37.9          35.35
    0.4655              -24.71         -1.466          39.38          65.67         -12.41        -0.2807          21.16          52.35         -12.04          37.89          35.37
      0.49               -24.7         -1.466          39.39          65.66         -12.41        -0.2866          21.18          52.34         -12.07          37.87           35.4
    0.5145               -24.7         -1.466          39.39          65.66         -12.42        -0.2931          21.19          52.31         -12.11          37.84          35.43
     0.539              -24.69         -1.466           39.4          65.65         -12.42        -0.3003          21.21          52.29         -12.15          37.82          35.47
    0.5635              -24.68         -1.466           39.4          65.64         -12.42        -0.3082          21.23          52.26          -12.2           37.8           35.5
     0.588              -24.67         -1.467          39.41          65.64         -12.43        -0.3171          21.25          52.23         -12.25          37.77          35.55
    0.6125              -24.66         -1.467          39.42          65.63         -12.44         -0.327          21.28           52.2         -12.31          37.73          35.59
     0.637              -24.65         -1.467          39.43          65.62         -12.44         -0.338           21.3          52.17         -12.38           37.7          35.65
    0.6615              -24.64         -1.467          39.44          65.61         -12.45        -0.3505          21.33          52.12         -12.45          37.66           35.7
     0.686              -24.62         -1.467          39.45           65.6         -12.46        -0.3645          21.37          52.08         -12.54          37.61          35.77
    0.7105              -24.61         -1.467          39.46          65.59         -12.47        -0.3805          21.41          52.02         -12.63          37.56          35.85
     0.735              -24.59         -1.467          39.48          65.58         -12.48        -0.3987          21.45          51.96         -12.74           37.5          35.93
    0.7595              -24.57         -1.468           39.5          65.56         -12.49        -0.4196           21.5           51.9         -12.86          37.43          36.03
     0.784              -24.54         -1.468          39.51          65.54          -12.5        -0.4438          21.56          51.82         -13.01          37.36          36.15
    0.8085              -24.52         -1.468          39.54          65.52         -12.52        -0.4719          21.63          51.72         -13.17          37.26          36.28
     0.833              -24.48         -1.469          39.56           65.5         -12.54        -0.5047          21.71          51.61         -13.37          37.16          36.43
    0.8575              -24.45         -1.469           39.6          65.47         -12.56        -0.5434           21.8          51.49          -13.6          37.03          36.62
    0.8819               -24.4          -1.47          39.63          65.43         -12.58        -0.5894          21.91          51.33         -13.87          36.88          36.84
    0.9064              -24.34          -1.47          39.68          65.39         -12.62        -0.6445          22.05          51.15          -14.2           36.7           37.1
    0.9309              -24.28         -1.471          39.73          65.34         -12.65        -0.7112          22.21          50.93          -14.6          36.49          37.41
    0.9554               -24.2         -1.472           39.8          65.28          -12.7        -0.7927          22.41          50.66         -15.08          36.22           37.8
    0.9799               -24.1         -1.473          39.88           65.2         -12.76        -0.8933          22.65          50.33         -15.68          35.89          38.28
     1.004              -23.97         -1.475          39.98          65.11         -12.83         -1.019          22.96          49.91         -16.43          35.49          38.87
     1.029              -23.81         -1.477          40.11          64.99         -12.92         -1.177          23.34          49.39         -17.37          34.97          39.62
